<svg width="122" height="110" viewBox="0 0 122 110" fill="none" xmlns="http://www.w3.org/2000/svg">
<g clip-path="url(#clip0_2007_1683)">
<path d="M98.6487 80.2287L103.681 62.5821C103.681 62.5821 106.227 39.8273 113.629 21.387L111.749 17.4186C111.749 17.4186 97.9069 53.5984 91.6518 56.0976C88.971 57.1699 80.0689 57.8116 69.8516 58.048C64.743 40.6632 63.1328 5.20955 63.1328 5.20955H58.8672C58.8672 5.20955 57.2571 40.6547 52.1485 58.048C41.9312 57.8116 33.0291 57.1699 30.3483 56.0976C24.0932 53.5984 10.251 17.4186 10.251 17.4186L8.37109 21.387C15.7727 39.8273 18.3186 62.5821 18.3186 62.5821L23.3513 80.2287L21.2691 83.2599L21.9772 90.4283C33.0965 97.411 61 96.3724 61 96.3724C61 96.3724 88.9036 97.4025 100.023 90.4283L100.731 83.2599L98.6487 80.2287Z" fill="url(#paint0_linear_2007_1683)"/>
<path d="M103.993 90.7745L109.962 72.6719C109.962 72.6719 113.174 49.0981 122 29.7881L119.876 25.6087C119.876 25.6087 103.42 63.4011 96.2124 65.9848C88.3556 68.7964 93.675 1.79843 93.675 1.79843L90.2608 0.00844335C90.2608 0.00844335 74.6399 53.9615 61 59.1119C47.3686 53.953 31.7392 0 31.7392 0L28.325 1.78999C28.325 1.78999 33.6444 68.7964 25.7876 65.9764C18.5799 63.4011 2.12438 25.6087 2.12438 25.6087L0 29.7881C8.82629 49.0981 12.0381 72.6719 12.0381 72.6719L18.0066 90.7745L15.6631 93.8647L16.5482 101.16C46.1799 112.947 75.8116 112.947 105.435 101.16L106.328 93.8647L103.985 90.7745H103.993Z" fill="url(#paint1_linear_2007_1683)"/>
<g style="mix-blend-mode:multiply">
<path d="M28.325 1.78999C28.325 1.78999 33.6444 68.7964 25.7876 65.9764C18.5799 63.4011 2.12438 25.6087 2.12438 25.6087L0 29.7881C8.82629 49.0981 12.0381 72.6719 12.0381 72.6719L18.0066 90.7745L15.6631 93.8647L16.5482 101.16C46.1799 112.947 75.8116 112.947 105.435 101.16C90.9605 106.403 75.9212 107.036 75.9212 107.036C75.9212 107.036 39.7899 94.5065 28.3166 1.78999H28.325Z" fill="#E4AF64"/>
</g>
<g style="mix-blend-mode:multiply">
<path d="M26.8497 103.845C25.796 101.489 25.4419 98.5593 25.8381 94.9877C47.3095 99.4289 60.9915 98.2806 60.9915 98.2806C31.0648 98.2806 19.6336 90.7407 19.6336 90.7407L12.0381 72.6635L18.0066 90.766L15.663 93.8563L16.5482 101.151C40.4221 110.65 64.2961 112.474 88.1785 106.673C65.1728 111.258 44.8226 110.11 26.8497 103.836V103.845Z" fill="#E4AF64"/>
</g>
<g style="mix-blend-mode:soft-light">
<path d="M96.7603 68.1548C95.6307 68.56 94.501 68.2898 93.5737 67.3948C91.5589 65.436 89.3503 59.5932 90.1595 31.5444C90.5136 19.3353 91.3313 7.45548 91.6432 3.20847L91.365 3.06494C89.9909 7.56524 86.6948 17.9506 82.4713 28.5807C74.7915 47.9329 67.7608 58.9262 61.5816 61.265L60.9999 61.4845L60.4183 61.265C54.239 58.9262 47.2083 47.9329 39.5285 28.5807C35.3051 17.9421 32.0089 7.5568 30.6348 3.06494L30.4409 3.16626C54.3992 93.4679 89.6032 103.043 89.6032 103.043C93.9278 102.241 98.851 101.075 103.732 99.3952L104.322 94.5909L101.785 91.2473L108.107 72.064C108.436 69.7337 110.965 52.9989 117.102 36.5091C111.454 48.4648 102.307 66.1706 96.7687 68.1548H96.7603Z" fill="#816E38"/>
</g>
<path d="M39.6214 94.8104C49.8724 106.268 58.0158 80.6594 57.8219 80.7016C57.8809 80.7607 57.94 80.8282 57.999 80.8873C58.5553 82.9813 59.5922 85.928 61.0001 86.3333C61.0001 86.3333 61.0001 86.3333 61.0085 86.3333C61.0085 86.3333 61.0254 86.3333 61.0338 86.3248C61.0759 86.3164 61.1518 86.2826 61.253 86.2235C61.6239 86.0378 61.9695 85.6747 62.2814 85.2019C62.8631 84.3998 63.5628 83.0235 64.1782 80.7016C63.9759 80.6594 72.1278 106.268 82.3787 94.8104C82.3872 94.8104 83.6011 90.2088 81.2154 85.4721C81.2154 85.4974 77.0931 85.9787 76.7053 89.9555C76.6547 89.9386 70.5766 76.2941 63.2509 76.0831C61.7756 76.1168 60.3004 76.1168 58.8251 76.0831C51.4657 76.2013 45.3539 89.9386 45.2948 89.9555C44.9071 85.9787 40.7848 85.4974 40.7848 85.4721C38.399 90.2088 39.613 94.8104 39.6214 94.8104Z" fill="url(#paint2_linear_2007_1683)"/>
<g style="mix-blend-mode:soft-light">
<path d="M45.2781 92.1085C45.2781 92.1085 44.5699 86.1729 40.9619 86.4093C40.9619 86.4093 39.1578 90.251 40.1189 94.4558C40.0261 94.5656 49.2233 105.542 50.8672 81.8921C50.8672 81.8921 47.7481 85.1512 45.2781 92.1001V92.1085Z" fill="#816E38"/>
</g>
<g style="mix-blend-mode:soft-light">
<path d="M41.7205 87.0679C41.5434 87.0256 41.3748 86.975 41.1978 86.9328C41.1219 87.1776 41.0376 87.4225 40.9618 87.6673C40.2873 89.584 40.1187 91.889 40.6077 94.0758C42.142 94.9962 43.9038 94.3882 44.9576 92.632C43.9376 93.1048 42.7826 93.3075 41.7542 92.7165C41.7795 91.7032 41.9144 90.6732 42.142 89.7106C42.6478 90.023 43.0946 90.5634 43.4486 91.222C43.1114 91.5344 42.7405 91.7961 42.3696 92.0157C43.0355 92.3872 43.71 92.4294 44.3844 92.1001C44.5024 92.0325 44.6204 91.9734 44.7384 91.9059C44.6878 91.6526 44.6373 91.3993 44.5867 91.146C44.2242 89.128 43.0608 87.4478 41.7205 87.0679Z" fill="#816E38"/>
</g>
<g style="mix-blend-mode:soft-light">
<path d="M50.0243 83.471C50.0243 83.471 47.1834 87.6335 46.0369 91.6864C46.0369 91.6864 47.5964 90.8674 48.3383 89.3307C49.0801 87.8024 50.0327 83.4794 50.0327 83.471H50.0243Z" fill="#816E38"/>
</g>
<g style="mix-blend-mode:soft-light">
<path d="M71.1248 81.8921C72.7686 105.533 81.9658 94.5656 81.8731 94.4558C82.8341 90.251 81.0217 86.4093 81.0301 86.4093C77.4304 86.1729 76.7223 92.0916 76.7139 92.1085C74.2355 85.1597 71.1248 81.9005 71.1248 81.9005V81.8921Z" fill="#816E38"/>
</g>
<g style="mix-blend-mode:soft-light">
<path d="M80.2713 87.0679C80.4484 87.0256 80.617 86.975 80.794 86.9328C80.8699 87.1776 80.9542 87.4225 81.03 87.6673C81.7044 89.584 81.873 91.889 81.3841 94.0758C79.8498 94.9962 78.0879 94.3882 77.0342 92.632C78.0542 93.1048 79.2091 93.299 80.2376 92.7165C80.2039 91.7032 80.0774 90.6732 79.8498 89.7106C79.344 90.023 78.8972 90.5634 78.5432 91.222C78.8804 91.5344 79.2513 91.7961 79.6222 92.0157C78.9562 92.3872 78.2818 92.4294 77.6074 92.1001C77.4894 92.0325 77.3714 91.9734 77.2534 91.9059C77.3039 91.6526 77.3545 91.3993 77.4051 91.146C77.7676 89.1196 78.9309 87.4478 80.2713 87.0679Z" fill="#816E38"/>
</g>
<g style="mix-blend-mode:soft-light">
<path d="M71.9762 83.471C71.9762 83.471 74.8171 87.6335 75.9636 91.6864C75.9636 91.6864 74.4041 90.8674 73.6622 89.3307C72.9204 87.8024 71.9678 83.4794 71.9678 83.471H71.9762Z" fill="#816E38"/>
</g>
<g style="mix-blend-mode:multiply">
<path d="M57.8219 80.7016C57.8641 80.7185 57.9231 80.7522 57.9652 80.786C58.5132 82.8884 59.5585 85.928 60.9916 86.3417C60.9916 86.3417 60.9916 86.3417 61.0001 86.3417C61.0254 86.3417 61.0507 86.3164 61.0675 86.308C61.5059 86.1475 61.9105 85.7507 62.273 85.2019C62.88 84.3913 63.5881 83.015 64.1698 80.7016C64.1276 80.6678 68.6714 96.0854 76.0309 97.6643C70.4249 96.4146 68.4438 80.2878 64.1951 77.0118C62.0623 76.6234 59.9295 76.6234 57.7882 77.0118C53.5395 80.2794 51.5584 96.4062 45.9524 97.6643C53.3118 96.0854 57.8472 80.6678 57.8135 80.7016H57.8219ZM60.039 79.815C60.1233 80.4145 60.2582 81.0224 60.41 81.5881C59.803 81.1068 59.3309 80.3807 59.0274 79.3844C58.9769 79.2071 58.9263 79.0298 58.8757 78.8525C59.019 78.7258 59.1623 78.6076 59.3141 78.481C60.4437 77.434 61.9527 77.5184 63.0317 78.7427C63.1666 78.9031 63.3099 79.072 63.4448 79.2324C63.3942 79.5026 63.3352 79.7644 63.2846 80.0345C62.8968 82.1876 61.978 84.0282 60.6629 85.033C59.2382 83.9607 58.3446 81.5543 58.412 79.1311C58.8841 80.6087 59.567 82.0441 60.5111 82.7786C60.9411 82.0272 61.312 81.1322 61.5817 80.1865C61.1097 79.8488 60.5617 79.7306 60.039 79.8066V79.815Z" fill="#C5793A"/>
</g>
<path d="M46.5678 77.0625C37.2189 66.3985 28.4095 89.0689 28.224 89.0605C28.165 88.9845 28.1144 88.9001 28.0638 88.8156C27.6507 86.5697 26.8583 83.3443 25.5348 82.4409C25.5348 82.4409 25.5348 82.4409 25.5264 82.4409C25.5264 82.4409 25.5095 82.4409 25.5011 82.4409C25.4589 82.4409 25.3831 82.4409 25.2819 82.4662C24.9025 82.5169 24.54 82.7364 24.186 83.0826C23.5453 83.6483 22.736 84.7122 21.8846 86.7132C21.7244 86.5866 17.3323 59.0528 7.19939 62.4217C7.20782 62.4217 5.29419 65.7484 6.52498 71.9627C6.51655 71.988 10.3185 74.5126 11.2964 70.9495C11.2458 70.8904 14.7359 88.2415 22.3398 91.6357C23.8404 92.2267 25.3409 92.7924 26.8583 93.3159C34.6393 95.7138 41.1304 81.985 41.0714 82.0018C41.3918 86.0462 45.5478 86.5021 45.5478 86.4768C47.8576 81.5881 46.5594 77.0709 46.5678 77.0709V77.0625Z" fill="url(#paint3_linear_2007_1683)"/>
<g style="mix-blend-mode:soft-light">
<path d="M41.1135 79.8403C41.1135 79.8403 41.7289 85.8858 45.3538 85.5396C45.3538 85.5396 47.082 81.5881 46.0957 77.4509C46.0029 77.5522 37.8173 66.4407 35.322 89.4827C35.322 89.4827 38.635 86.7217 41.1219 79.8403H41.1135Z" fill="#816E38"/>
</g>
<g style="mix-blend-mode:soft-light">
<path d="M44.595 84.8979C44.772 84.9401 44.9406 84.9739 45.1177 85.0161C45.1935 84.7713 45.2694 84.518 45.3453 84.2731C45.9944 82.3227 46.1208 80.0092 45.6235 77.8477C44.1482 77.0118 42.4706 77.6113 41.4253 79.3253C42.42 78.8862 43.5328 78.7005 44.5276 79.2578C44.5023 80.271 44.3842 81.3095 44.1651 82.272C43.6677 81.9681 43.2293 81.4277 42.8837 80.7691C43.2125 80.4567 43.575 80.195 43.9375 79.9754C43.2968 79.6124 42.6392 79.5702 41.9817 79.8826C41.8637 79.9417 41.7541 80.0008 41.636 80.0683C41.6866 80.3216 41.7288 80.5749 41.7794 80.8282C42.1166 82.8631 43.2546 84.5686 44.595 84.9064V84.8979Z" fill="#816E38"/>
</g>
<g style="mix-blend-mode:soft-light">
<path d="M36.2324 88.0388C36.2324 88.0388 39.2251 84.2393 40.38 80.2287C40.38 80.2287 38.8542 80.9464 38.087 82.3987C37.3283 83.8509 36.2324 88.0388 36.2324 88.0388Z" fill="#816E38"/>
</g>
<g style="mix-blend-mode:soft-light">
<path d="M15.267 82.0441C16.8603 58.6729 7.60404 63.2745 7.55346 63.1141C5.97703 66.2972 6.84533 71.2197 6.85376 71.2197C10.0319 74.1242 11.6336 68.8809 11.6252 68.8893C12.7042 77.0963 15.267 82.0525 15.267 82.0441Z" fill="#816E38"/>
</g>
<g style="mix-blend-mode:soft-light">
<path d="M7.6461 71.1606C7.48593 71.0761 7.31733 70.9833 7.15716 70.8988C7.13187 70.6118 7.10658 70.3247 7.08129 70.0376C6.82839 67.741 7.10658 65.4951 7.91587 63.8149C9.37427 64.0766 10.7821 65.8328 11.4396 68.1716C10.6135 67.0571 9.65246 66.0861 8.65771 65.9004C8.50597 66.8714 8.44696 67.9268 8.48068 68.9822C8.97806 69.0497 9.467 68.8555 9.8885 68.484C9.64403 67.9606 9.35741 67.4539 9.07922 66.9896C9.7199 67.1078 10.3184 67.5299 10.858 68.2983C10.9507 68.4334 11.0434 68.5769 11.1362 68.712L10.8833 69.3284C10.2341 71.0002 8.91905 71.7854 7.66296 71.1521L7.6461 71.1606Z" fill="#816E38"/>
</g>
<g style="mix-blend-mode:soft-light">
<path d="M14.6768 80.043C14.6768 80.043 12.5946 74.3606 12.2236 69.7759C12.2236 69.7759 13.4881 71.5405 13.9434 73.4403C14.3902 75.34 14.6768 80.043 14.6768 80.043Z" fill="#816E38"/>
</g>
<g style="mix-blend-mode:multiply">
<path d="M28.2239 89.0605C28.1818 89.0352 28.1312 88.9845 28.0806 88.9338C27.676 86.6795 26.8835 83.3612 25.5347 82.4409C25.5347 82.4409 25.5347 82.4409 25.5263 82.4409C25.501 82.4409 25.4757 82.4409 25.4588 82.4409C25.0205 82.4409 24.5905 82.6773 24.1859 83.0742C23.5199 83.6399 22.6938 84.6953 21.8845 86.7048C21.8592 86.6626 19.0604 69.9954 13.0835 64.0597C17.6863 68.5685 17.5009 85.0837 21.4798 90.3017C23.5874 91.6357 25.7623 92.4378 27.9879 92.7165C32.6497 90.7069 35.322 75.1036 40.5487 74.2593C33.7372 75.4329 28.2576 89.0436 28.2239 89.0605ZM25.9225 89.204C25.8888 88.5877 25.796 87.9375 25.7033 87.3212C26.2681 88.0051 26.6812 88.8832 26.9088 89.9639C26.9425 90.1581 26.9847 90.3439 27.0184 90.5381C26.8582 90.6141 26.7065 90.6901 26.5463 90.7576C25.3155 91.4077 23.7813 90.7576 22.8287 89.0943C22.7106 88.8747 22.5842 88.6552 22.4662 88.4441C22.5505 88.2077 22.6263 87.9629 22.7106 87.7264C23.3092 85.776 24.3882 84.3491 25.7539 83.8256C27.0521 85.3876 27.7687 88.0304 27.5242 90.4114C27.1533 88.7987 26.5885 87.1607 25.7117 86.0969C25.2144 86.6879 24.776 87.4225 24.4219 88.2499C24.8687 88.765 25.3998 89.0774 25.9394 89.1871L25.9225 89.204Z" fill="#E4AF64"/>
</g>
<path d="M114.801 62.4133C104.668 59.0444 100.276 86.5781 100.116 86.7048C100.048 86.6795 99.9892 86.6372 99.9218 86.595C99.1546 84.7797 97.8648 82.3311 96.4739 82.4324C96.4739 82.4324 96.4739 82.4324 96.4654 82.4324L96.4486 82.4493C96.4064 82.4747 96.339 82.5338 96.2463 82.6266C95.9006 82.9475 95.5971 83.4203 95.3274 83.986C94.8216 84.9739 94.2483 86.5528 93.7847 89.0436C93.5992 89.0436 84.7898 66.3816 75.4408 77.0456C75.4493 77.0456 74.1595 81.5712 76.4609 86.4515C76.4609 86.4768 80.6169 86.0293 80.9373 81.9765C80.8782 81.9596 87.3188 95.5956 95.0745 93.3075C96.5835 92.784 98.0924 92.2267 99.593 91.6357C107.256 88.3175 110.763 70.8566 110.712 70.9157C111.699 74.4788 115.501 71.9543 115.484 71.9289C116.723 65.7146 114.801 62.3964 114.809 62.3879L114.801 62.4133Z" fill="url(#paint4_linear_2007_1683)"/>
<g style="mix-blend-mode:soft-light">
<path d="M110.375 68.8893C110.375 68.8893 111.968 74.1158 115.146 71.2197C115.146 71.2197 116.023 66.2972 114.447 63.1141C114.405 63.2745 105.14 58.6729 106.733 82.0441C106.733 82.0525 109.296 77.0963 110.375 68.8893Z" fill="#816E38"/>
</g>
<g style="mix-blend-mode:soft-light">
<path d="M114.354 71.1606C114.514 71.0761 114.683 70.9833 114.843 70.8988L114.919 70.0376C115.172 67.741 114.894 65.4951 114.084 63.8149C112.626 64.0766 111.218 65.8328 110.561 68.1716C111.387 67.0571 112.348 66.0861 113.342 65.9004C113.494 66.8714 113.553 67.9268 113.52 68.9822C113.022 69.0497 112.533 68.8555 112.112 68.484C112.356 67.9606 112.643 67.4539 112.921 66.9896C112.28 67.1078 111.682 67.5299 111.142 68.2983C111.049 68.4334 110.957 68.5769 110.864 68.712C110.948 68.9146 111.033 69.1173 111.117 69.3284C111.758 71.0002 113.081 71.7854 114.337 71.1521L114.354 71.1606Z" fill="#816E38"/>
</g>
<g style="mix-blend-mode:soft-light">
<path d="M107.323 80.043C107.323 80.043 109.406 74.3606 109.777 69.7759C109.777 69.7759 108.512 71.5405 108.065 73.4403C107.619 75.3485 107.332 80.043 107.332 80.043H107.323Z" fill="#816E38"/>
</g>
<g style="mix-blend-mode:soft-light">
<path d="M86.6781 89.4827C84.1744 66.4407 75.9972 77.5522 75.9045 77.4509C74.9182 81.5966 76.6379 85.5396 76.6463 85.5396C80.2713 85.8942 80.8867 79.8319 80.8867 79.8403C83.3735 86.7132 86.6866 89.4911 86.6866 89.4827H86.6781Z" fill="#816E38"/>
</g>
<g style="mix-blend-mode:soft-light">
<path d="M77.4051 84.8979C77.2281 84.9401 77.0595 84.9739 76.8825 85.0161C76.8066 84.7713 76.7307 84.518 76.6549 84.2731C76.0057 82.3227 75.8793 80.0092 76.3767 77.8477C77.8519 77.0118 79.5295 77.6113 80.5748 79.3253C79.5801 78.8862 78.4673 78.7005 77.4726 79.2578C77.4979 80.271 77.6243 81.3095 77.8351 82.272C78.3324 81.9681 78.7708 81.4277 79.1164 80.7691C78.7877 80.4567 78.4252 80.195 78.0627 79.9754C78.7034 79.6124 79.3609 79.5702 80.0185 79.8826C80.1365 79.9417 80.2461 80.0008 80.3641 80.0683C80.3135 80.3216 80.2714 80.5749 80.2208 80.8282C79.8836 82.8631 78.7455 84.5686 77.4051 84.9064V84.8979Z" fill="#816E38"/>
</g>
<g style="mix-blend-mode:soft-light">
<path d="M85.7677 88.0388C85.7677 88.0388 82.775 84.2393 81.6201 80.2287C81.6201 80.2287 83.146 80.9464 83.9131 82.3987C84.6718 83.8509 85.7677 88.0388 85.7677 88.0388Z" fill="#816E38"/>
</g>
<g style="mix-blend-mode:multiply">
<path d="M100.116 86.7048C100.065 86.7048 100.014 86.7048 99.9639 86.6879C99.1967 84.8641 97.8985 82.3311 96.4738 82.4325C96.4738 82.4325 96.4738 82.4325 96.4654 82.4325C96.4401 82.4493 96.4232 82.4747 96.3979 82.4916C95.9849 82.804 95.6308 83.3359 95.3189 83.9945C94.7878 84.9992 94.1977 86.5781 93.7762 89.0436C93.734 89.0267 88.2629 75.416 81.4514 74.2424C86.6781 75.0867 89.3504 90.6901 94.0122 92.6996C96.2293 92.4209 98.4127 91.6188 100.52 90.2848C104.499 85.0752 104.314 68.5516 108.917 64.0428C102.948 69.9785 100.141 86.6457 100.116 86.6879V86.7048ZM97.9996 88.4948C97.8563 87.9375 97.6709 87.3972 97.4686 86.8905C98.1092 87.127 98.6488 87.6589 99.0534 88.5032C99.1208 88.6552 99.1883 88.8072 99.2557 88.9592C99.1208 89.1449 98.986 89.3222 98.8511 89.508C97.8142 90.994 96.2631 91.4837 95.0828 90.6225C94.9311 90.5043 94.7794 90.3861 94.6276 90.2763C94.6613 89.9977 94.6951 89.7106 94.7288 89.432C94.9564 87.1776 95.732 85.0668 96.9122 83.5976C98.3959 84.1211 99.5086 86.0884 99.6857 88.5032C99.0618 87.2536 98.261 86.1306 97.2578 85.7676C96.8953 86.671 96.6087 87.6842 96.4148 88.7059C96.9206 88.8663 97.4685 88.7819 97.9912 88.5032L97.9996 88.4948Z" fill="#E4AF64"/>
</g>
<g style="mix-blend-mode:multiply">
<path d="M74.092 78.6245C74.092 79.2662 74.0499 79.891 73.9656 80.5074C73.0804 87.0003 67.643 92.0072 61.0591 92.0325C60.9074 92.0325 60.7556 92.0325 60.6039 92.0157C60.5702 92.0157 60.5449 92.0157 60.5196 92.0072C60.4269 92.0072 60.3341 91.9988 60.2414 91.9903C57.6871 91.8383 55.3267 90.9518 53.3709 89.508C53.295 89.4573 53.2276 89.4151 53.1601 89.356C53.1433 89.3476 53.1348 89.3391 53.1264 89.3307C52.9662 89.204 52.8145 89.0774 52.6543 88.9507C52.5953 88.9001 52.5363 88.8494 52.4773 88.7987C50.0663 86.6879 48.414 83.6821 48.0094 80.2794C47.9419 79.739 47.9082 79.1818 47.9082 78.6245C47.9082 71.2281 53.7755 65.2249 61.0001 65.2249C68.2247 65.2249 74.092 71.2281 74.092 78.6245Z" fill="#C5793A"/>
</g>
<path d="M73.5524 77.9237C73.5524 78.5401 73.5102 79.1395 73.4259 79.7306C72.5745 85.9533 67.3647 90.7576 61.0506 90.7829C60.9073 90.7829 60.764 90.7829 60.6122 90.766C60.5869 90.766 60.5617 90.766 60.5364 90.7576C60.4521 90.7576 60.3593 90.7492 60.275 90.7407C57.8303 90.5972 55.5626 89.7444 53.6911 88.3597C53.6237 88.309 53.5563 88.2668 53.4888 88.2162C53.4804 88.2077 53.472 88.1993 53.4551 88.1908C53.3034 88.0726 53.1516 87.946 53.0083 87.8193C52.9493 87.7687 52.8903 87.718 52.8313 87.6673C50.513 85.6409 48.9282 82.7617 48.5404 79.5026C48.4729 78.9791 48.4392 78.4556 48.4392 77.9153C48.4392 70.8144 54.0621 65.0645 61 65.0645C67.938 65.0645 73.5524 70.8228 73.5524 77.9153V77.9237Z" fill="url(#paint5_linear_2007_1683)"/>
<path opacity="0.5" d="M70.1974 69.3537L69.5988 68.8471L69.2279 68.2645C67.4407 66.7447 65.2236 65.7146 62.7789 65.3853L61.0507 65.2671C59.508 65.2671 58.0075 65.5626 56.5744 66.1115C55.6134 66.483 53.43 67.817 52.6881 68.5685C51.6175 69.6492 50.7914 70.4429 49.6533 72.8408C49.4341 73.3052 49.1391 74.0989 48.9705 74.5801L49.3161 75.7284C49.3161 75.7284 50.7829 76.1422 51.1623 76.1422L51.8535 74.9601C51.8535 74.9601 52.1739 73.4994 52.2413 73.3981C52.2666 73.3643 52.4858 73.111 52.7387 72.8155C52.7387 72.807 52.7471 72.7901 52.7556 72.7817C53.6323 71.2872 54.8715 70.0545 56.3468 69.1933C56.4311 69.1173 58.3784 67.9099 58.4627 67.8592C58.5386 67.8086 61.9191 67.7241 62.0961 67.7748C62.2731 67.8255 64.9033 68.408 64.9033 68.408L66.9771 69.455C66.9771 69.455 67.6262 70.3162 67.8707 70.5358L69.6326 71.8107L70.0119 71.701L70.425 69.9616L70.2058 69.3284L70.1974 69.3537Z" fill="#C0A831"/>
<path d="M70.9393 78.0672C70.9393 78.6752 70.8887 79.2662 70.7875 79.8319C70.6611 80.558 70.3997 81.2504 70.0288 81.8836C69.0509 83.5301 67.601 85.1174 66.7242 86.0124C66.1426 86.6035 65.4597 87.0679 64.6926 87.3634C63.6051 87.794 62.4333 88.022 61.2025 88.022C60.9918 88.022 60.7895 88.022 60.5871 87.9966C60.4185 88.3935 60.1656 88.7987 60.0307 87.946C55.4532 87.3803 51.8536 83.5723 51.4995 78.8356C51.4658 78.3459 51.4911 77.8562 51.567 77.3749C51.7608 76.2097 52.0643 75.0361 52.2667 74.3353C52.4015 73.854 52.5954 73.3896 52.8483 72.9506C54.0538 70.8904 55.959 69.3199 58.2351 68.5769C58.37 68.2307 58.6482 67.9352 59.2383 68.3067C59.8706 68.1716 60.5281 68.1041 61.1941 68.1041C61.3205 68.1041 61.4386 68.1041 61.565 68.1041C61.8769 68.1125 62.1804 68.1547 62.4839 68.2223C63.6978 68.4925 65.0635 69.0497 65.8222 69.379C66.2606 69.5648 66.6652 69.8096 67.0446 70.0967C67.9382 70.7891 68.7137 71.625 69.3291 72.5875C69.3628 72.6297 69.3881 72.6804 69.4134 72.7226C69.7928 73.3305 70.1047 73.9807 70.3492 74.6646C70.3492 74.6646 70.3492 74.6646 70.3492 74.673C70.7201 75.7284 70.9224 76.8598 70.9224 78.0504L70.9393 78.0672Z" fill="url(#paint6_linear_2007_1683)"/>
<path opacity="0.5" d="M66.64 71.5405C66.2606 71.2535 65.8391 71.017 65.4008 70.8313C64.6926 70.5358 63.445 70.0461 62.3238 69.8012C62.0287 69.7337 61.7337 69.6999 61.4302 69.683C61.3122 69.683 61.2026 69.683 61.0846 69.683C60.6715 69.683 60.2753 69.7083 59.8791 69.759C59.6683 69.7843 57.9317 70.2318 57.7547 70.2994C55.8663 71.0255 54.2899 72.3511 53.2615 74.0482C53.017 74.445 52.8315 74.8757 52.7051 75.3147C52.5196 75.9311 52.2414 76.9696 52.056 77.9997C51.9801 78.4556 51.9379 78.92 51.9801 79.3844C52.1318 81.4193 52.9748 83.2683 54.2731 84.7037C56.1361 86.7639 58.9096 87.7771 61.7 87.5407C62.6947 87.4563 63.8412 87.3212 64.3723 87.1185C65.0888 86.8483 65.738 86.4262 66.2775 85.8942C67.1036 85.0837 68.4609 83.6483 69.3798 82.1538C69.7338 81.5797 69.9783 80.9464 70.0963 80.2878C70.189 79.7728 70.2396 79.2409 70.2396 78.7005C70.2396 75.7875 68.8318 73.1954 66.6568 71.5405H66.64Z" fill="#FDB04C"/>
<g style="mix-blend-mode:multiply">
<path d="M64.8864 90.1919C63.664 90.5803 62.3911 90.7745 61.1013 90.7745C60.9411 90.7745 60.7809 90.7745 60.6208 90.766C60.2161 90.7492 59.8283 90.6985 59.4574 90.6141C57.822 90.2594 55.9758 89.508 55.0148 89.0943C54.6185 88.9254 54.2392 88.7228 53.8936 88.4948C55.6217 88.7987 58.9937 89.3982 59.4405 89.4151L64.8864 90.1835V90.1919Z" fill="#F8E0DA"/>
</g>
<path d="M68.5366 83.986C68.5366 83.986 66.1593 86.3755 65.6282 86.6288C58.8336 89.9133 54.5764 85.3285 54.3066 85.0837C55.8072 86.6288 57.8051 87.6758 60.0391 87.9544C60.174 88.8072 60.4269 88.4019 60.5955 88.0051C60.7978 88.022 61.0086 88.0304 61.2109 88.0304C62.4417 88.0304 63.6134 87.794 64.7009 87.3718C65.4596 87.0679 66.1509 86.6035 66.7326 86.0209C67.2215 85.5227 67.8875 84.8135 68.545 83.9945L68.5366 83.986Z" fill="#FFBE59"/>
<g style="mix-blend-mode:multiply">
<path d="M70.4081 74.6646C70.4081 74.6646 70.3744 74.6815 70.3576 74.6899C70.3407 74.6899 70.3238 74.6983 70.307 74.7068C70.307 74.7068 70.307 74.7068 70.2985 74.7068C70.2648 74.7152 70.2227 74.7321 70.189 74.7406C70.1468 74.749 70.1047 74.7574 70.0625 74.7659C70.0878 74.7659 70.1047 74.7659 70.1215 74.7574C70.2058 74.7406 70.2901 74.7152 70.3576 74.6814C70.3576 74.6814 70.3576 74.6815 70.3576 74.6899C70.3744 74.6899 70.3913 74.6815 70.4081 74.673V74.6646Z" fill="#E5DAED"/>
</g>
<g style="mix-blend-mode:multiply">
<path d="M73.426 79.7306C72.5745 85.9533 67.3648 90.7576 61.0506 90.7829C60.9073 90.7829 60.764 90.7829 60.6123 90.766C60.4943 90.766 60.3847 90.7492 60.2666 90.7407C59.9884 90.7069 59.7103 90.6732 59.4489 90.6141C57.8219 90.251 55.9673 89.508 55.0063 89.0943C54.6101 88.9254 54.2307 88.7227 53.8851 88.4948C53.8176 88.4526 53.7502 88.4019 53.6828 88.3597C53.6153 88.309 53.5479 88.2668 53.4804 88.2161C53.472 88.2077 53.4636 88.1993 53.4467 88.1908C53.295 88.0726 53.1432 87.946 52.9999 87.8193C52.9409 87.7687 52.8819 87.718 52.8229 87.6673C50.5046 85.6409 48.9198 82.7617 48.532 79.5026C49.1811 79.8657 50.277 80.4483 51.5921 81.0984C52.7976 84.7881 55.9673 87.5745 59.8536 88.1148C59.9042 88.385 60.0053 88.6214 60.2161 88.6468C60.2245 88.6468 60.2414 88.6468 60.2498 88.6468C60.4605 88.6468 60.6038 88.4272 60.7134 88.1908C60.8989 88.1993 61.0591 88.1993 61.2192 88.1993C62.1044 88.1993 62.9811 88.0811 63.8241 87.8531C64.1698 87.7602 64.5154 87.642 64.8526 87.5069C65.6535 87.1945 66.3784 86.7132 67.0023 86.08C67.1962 85.8858 67.4238 85.6409 67.6767 85.3707C68.5197 84.4504 69.6156 83.1501 70.408 81.8161C70.5598 81.5543 70.6946 81.2926 70.8127 81.0224C71.74 80.5665 72.6251 80.1105 73.4091 79.7052L73.426 79.7306Z" fill="#F8E0DA"/>
</g>
<path opacity="0.5" d="M59.7947 85.3116C59.7947 85.3116 59.3647 85.6494 59.3732 85.8942C59.3732 86.1391 59.5839 86.595 60.1825 86.6035C60.781 86.6119 60.9749 86.3502 61.0002 85.9618C61.0255 85.5734 60.663 85.2947 60.5028 85.2525C60.3426 85.2103 59.8874 85.2356 59.7947 85.3116Z" fill="#C0A831"/>
<path opacity="0.5" d="M59.019 84.5517C59.019 84.5517 58.8757 84.6699 58.8841 84.7628C58.8841 84.8557 58.9516 85.0161 59.1539 85.0246C59.3562 85.033 59.4152 84.9317 59.4237 84.7881C59.4237 84.6446 59.3141 84.5433 59.2635 84.5264C59.2129 84.5095 59.0612 84.5264 59.0275 84.5517H59.019Z" fill="#C0A831"/>
<path d="M66.3448 71.4392C65.9823 71.169 65.5945 70.941 65.173 70.7637C64.507 70.4851 63.3268 70.0207 62.2646 69.7928C61.9864 69.7337 61.7082 69.6999 61.4216 69.683C61.312 69.683 61.2024 69.683 61.0928 69.683C60.7051 69.683 60.3257 69.7083 59.9548 69.759C59.7525 69.7843 58.117 70.2065 57.94 70.274C56.1613 70.9664 54.6607 72.216 53.6828 73.8202C53.4552 74.1917 53.2782 74.597 53.1517 75.0192C52.9747 75.6018 52.7134 76.5812 52.5448 77.5606C52.4689 77.9913 52.4352 78.4303 52.4689 78.8694C52.6122 80.7944 53.413 82.5422 54.6354 83.9016C56.3973 85.8436 59.0275 86.8061 61.6577 86.5781C62.5934 86.5022 63.6809 86.3671 64.1782 86.1813C64.8527 85.928 65.468 85.5227 65.9823 85.0246C66.7578 84.2562 68.0477 82.8968 68.916 81.4868C69.2532 80.9464 69.4808 80.3469 69.5904 79.7221C69.6747 79.2324 69.7252 78.7343 69.7252 78.2192C69.7252 75.4582 68.3933 73.0097 66.3364 71.4477L66.3448 71.4392Z" fill="url(#paint7_linear_2007_1683)"/>
<g style="mix-blend-mode:soft-light">
<path d="M66.3616 78.025C66.3616 77.9153 66.3616 77.8055 66.3616 77.7042C66.2773 76.5559 65.8136 75.492 65.0381 74.6308C64.6756 74.2255 64.2456 73.8962 63.7651 73.6345L65.2657 70.7469L63.5712 73.5247C62.7198 73.0941 61.7335 72.8999 60.7472 72.9843C59.98 73.0519 59.4658 73.1279 59.2129 73.2292C58.9769 73.3136 58.7661 73.4318 58.5638 73.5754L56.844 70.7469L58.3952 73.7189C58.294 73.7949 58.1929 73.8625 58.1086 73.9553C57.6786 74.3775 56.8778 75.2134 56.3382 76.0915C56.1275 76.4292 55.9926 76.7923 55.9167 77.1891C55.8662 77.4678 55.8493 77.7548 55.8409 78.0335L52.2244 78.1432L55.8409 78.253C55.8409 78.3796 55.8493 78.5063 55.8662 78.6329C56.0095 80.0599 56.7345 81.3517 57.9062 82.2383C58.0917 82.3818 58.3024 82.4916 58.5216 82.5929L56.8609 85.6832L58.7155 82.6942C59.1117 82.8546 59.7777 83.1079 60.3847 83.243C60.5617 83.2768 60.7303 83.3021 60.9073 83.3106C60.9748 83.3106 61.0422 83.3106 61.1097 83.3106C61.3457 83.3106 61.5817 83.2937 61.8094 83.2684C61.9358 83.2515 62.9221 82.9982 63.0317 82.9559C63.1835 82.8968 63.3268 82.8124 63.4785 82.7364L65.2994 85.7423L63.6724 82.6351C64.4648 82.196 65.1477 81.5628 65.6197 80.786C65.7631 80.558 65.8727 80.3047 65.9485 80.043C66.0413 79.739 66.2099 79.1311 66.3194 78.5147C66.3363 78.4219 66.3447 78.3374 66.3532 78.253L69.9275 78.1432L66.37 78.0335L66.3616 78.025ZM66.0918 78.4725C65.9822 79.072 65.8221 79.6715 65.7293 79.9754C65.6535 80.2203 65.5523 80.4567 65.4259 80.6678C64.8526 81.605 63.9675 82.3396 62.939 82.7364C62.8378 82.7786 61.8768 83.0235 61.7672 83.0404C61.489 83.0742 61.194 83.091 60.9073 83.0826C60.7472 83.0826 60.587 83.0573 60.4268 83.0235C59.7946 82.8884 59.078 82.6013 58.7071 82.4493C57.3751 80.8536 56.4225 79.1396 56.1275 77.2398C56.1949 76.8767 56.3214 76.539 56.5153 76.2266C57.0379 75.3738 57.8304 74.5548 58.2519 74.1326C58.5553 73.8371 58.901 73.6092 59.2888 73.4656C59.5164 73.3727 60.0306 73.2967 60.764 73.2376C60.9073 73.2208 61.0506 73.2208 61.2024 73.2208C62.6102 73.2208 63.959 73.7949 64.8695 74.8081C65.6113 75.6271 66.0497 76.6488 66.134 77.7464C66.1508 77.9828 66.134 78.2277 66.0918 78.4979V78.4725Z" fill="#A35D44"/>
</g>
<g style="mix-blend-mode:soft-light">
<path d="M57.2908 70.9073L58.6564 73.1532C58.8082 73.0688 58.9515 73.0012 59.1032 72.9421C59.3814 72.8324 59.9125 72.7479 60.7218 72.6804C61.6491 72.596 62.5933 72.7564 63.4532 73.1279L64.7767 70.9579C64.0854 70.6793 63.0907 70.3078 62.1971 70.1136C61.9442 70.0629 61.6744 70.0207 61.4046 70.0123C60.941 69.9954 60.4436 70.0123 59.9884 70.0798C59.8198 70.1052 58.2181 70.5104 58.041 70.578C57.7966 70.6709 57.5521 70.7806 57.2908 70.9157V70.9073Z" fill="#A35D44"/>
<path d="M57.9821 73.626C57.9821 73.626 57.9063 73.6851 57.8725 73.7274C57.5859 74.006 57.156 74.445 56.726 74.977L54.4836 73.1954C55.1075 72.4102 55.8577 71.7432 56.726 71.2197L57.9821 73.6345V73.626Z" fill="#A35D44"/>
<path d="M65.7883 78.4134C65.6787 79.0298 65.5101 79.6546 65.4343 79.891C65.3668 80.1105 65.2825 80.3216 65.1645 80.4989C65.1139 80.5749 65.0718 80.6509 65.0212 80.7185L64.3889 80.2203L60.1233 78.3712L57.4004 75.5089C57.7882 75.0192 58.1928 74.6139 58.4541 74.3522C58.7239 74.082 59.0358 73.8793 59.3899 73.7527C59.491 73.7189 59.8114 73.626 60.7893 73.5416C60.9242 73.5247 61.059 73.5247 61.2024 73.5247C62.5343 73.5247 63.7904 74.0651 64.6418 75.0107C65.3415 75.7791 65.7546 76.7247 65.8305 77.7548C65.8473 77.9659 65.8305 78.1939 65.7883 78.4219V78.4134Z" fill="#A35D44"/>
<path d="M66.6736 77.7211L69.4134 77.8055C69.2954 75.3907 68.1236 73.1785 66.1594 71.6925C65.9234 71.5152 65.6536 71.3463 65.367 71.2112L64.1699 73.5078C64.583 73.7611 64.9455 74.0651 65.2574 74.4113C66.0835 75.3231 66.5725 76.4546 66.6652 77.6788C66.6652 77.6957 66.6652 77.7042 66.6652 77.7211H66.6736Z" fill="#A35D44"/>
<path d="M69.4218 78.4725C69.4049 78.8694 69.3628 79.2662 69.2953 79.6546C69.1773 80.2456 68.9666 80.8029 68.6546 81.3179C68.3512 81.8161 67.9887 82.3058 67.6262 82.7617L65.6873 81.2335C65.7547 81.1491 65.8221 81.0477 65.8727 80.9549C66.0245 80.7016 66.1509 80.4229 66.2352 80.1359C66.3111 79.891 66.4965 79.2409 66.6146 78.5738V78.557L69.4218 78.4725Z" fill="#A35D44"/>
</g>
<g style="mix-blend-mode:multiply">
<path d="M70.3658 74.6899C70.3658 74.6899 70.3658 74.6899 70.3658 74.6815C70.1213 73.9975 69.8094 73.3474 69.4301 72.7395C69.4048 72.6973 69.3711 72.6466 69.3458 72.6044C68.7304 71.6418 67.9548 70.7975 67.0612 70.1136C66.6819 69.8181 66.2688 69.5817 65.8389 69.3959C65.0801 69.0666 63.7229 68.5178 62.5005 68.2392C62.1971 68.1716 61.8936 68.1294 61.5817 68.121C61.4552 68.121 61.3372 68.121 61.2107 68.121C60.5363 68.121 59.8872 68.1885 59.255 68.3236C58.6649 67.9521 58.3867 68.2476 58.2518 68.5938C55.9757 69.3368 54.0705 70.9073 52.865 72.9675C52.6121 73.3981 52.4182 73.8624 52.2833 74.3522C52.081 75.053 51.7775 76.2266 51.5836 77.3918C51.5077 77.873 51.474 78.3712 51.5162 78.8525C51.8281 83.0741 54.7196 86.5444 58.5721 87.6589C55.3097 86.5781 52.8987 83.5723 52.6205 79.9501C52.5868 79.5195 52.6121 79.0804 52.6795 78.6498C52.8481 77.6197 53.1179 76.5728 53.3033 75.9564C53.4214 75.5258 53.5984 75.1121 53.8176 74.7321C54.8882 72.9084 56.5742 71.5152 58.589 70.8566C58.707 70.5442 58.9515 70.2909 59.4742 70.6202C60.039 70.502 60.6122 70.4429 61.2107 70.4429C61.3203 70.4429 61.4299 70.4429 61.5395 70.4429C61.8093 70.4513 62.0875 70.4851 62.3488 70.5442C63.4279 70.7806 64.6334 71.2703 65.2993 71.5659C65.6871 71.7347 66.0496 71.9458 66.3868 72.2076C67.1792 72.8155 67.8621 73.5669 68.41 74.4113C68.4353 74.4535 68.4606 74.4957 68.4859 74.5295C68.8231 75.0614 69.1013 75.644 69.312 76.2519C69.312 76.2519 69.312 76.2519 69.312 76.2604C69.6408 77.1976 69.8179 78.2023 69.8179 79.2493C69.8179 79.7812 69.7673 80.3047 69.683 80.8113C69.5734 81.453 69.3458 82.0694 69.0086 82.6267C68.1487 84.0874 66.8589 85.489 66.0833 86.2826C65.5691 86.8061 64.9621 87.2198 64.2877 87.4816C64.1107 87.5491 63.9252 87.6082 63.7398 87.6673C64.0601 87.5745 64.372 87.4731 64.6839 87.3549C65.4426 87.0594 66.1339 86.5866 66.7156 86.004C67.5923 85.109 69.0423 83.5216 70.0202 81.8752C70.3911 81.2419 70.6524 80.5496 70.7789 79.8235C70.88 79.2493 70.9306 78.6583 70.9306 78.0588C70.9306 76.8683 70.7283 75.7369 70.3574 74.6815L70.3658 74.6899Z" fill="#C5793A"/>
</g>
<g style="mix-blend-mode:multiply">
<path d="M61.0001 59.1035C62.6355 58.4871 64.2963 57.1615 65.9486 55.3293C64.8442 46.2527 63.0655 27.9982 63.1245 5.20955H58.8673C58.8673 5.20955 58.6397 10.1911 58.0917 17.3426C58.0496 17.9421 57.999 18.55 57.9484 19.1749C57.7714 21.3617 57.5691 23.7089 57.333 26.1491C57.2656 26.8499 57.1981 27.5507 57.1223 28.2599C56.7261 32.1692 56.2455 36.2726 55.6807 40.2748C55.0906 44.4627 54.3994 48.5577 53.6069 52.239C56.0685 55.6924 58.5722 58.1747 61.0085 59.095L61.0001 59.1035Z" fill="#C5793A"/>
</g>
<g style="mix-blend-mode:soft-light">
<path d="M10.251 17.4186C10.251 17.4186 18.8244 45.6448 29.3029 58.7826C29.4294 57.8201 29.539 56.7816 29.6317 55.6839C23.0984 50.9894 10.251 17.4186 10.251 17.4186Z" fill="#816E38"/>
</g>
</g>
<defs>
<linearGradient id="paint0_linear_2007_1683" x1="61" y1="2.28815" x2="61" y2="60.2433" gradientUnits="userSpaceOnUse">
<stop stop-color="#FFD459"/>
<stop offset="1" stop-color="#EB6223"/>
</linearGradient>
<linearGradient id="paint1_linear_2007_1683" x1="103.429" y1="36.9397" x2="-42.0846" y2="93.7432" gradientUnits="userSpaceOnUse">
<stop stop-color="#FFD459"/>
<stop offset="1" stop-color="#FF9E59"/>
</linearGradient>
<linearGradient id="paint2_linear_2007_1683" x1="85.9025" y1="76.8683" x2="30.7544" y2="107.377" gradientUnits="userSpaceOnUse">
<stop stop-color="#FFD459"/>
<stop offset="1" stop-color="#FF9E59"/>
</linearGradient>
<linearGradient id="paint3_linear_2007_1683" x1="70.9729" y1="49.6891" x2="17.4024" y2="79.3214" gradientUnits="userSpaceOnUse">
<stop stop-color="#FFD459"/>
<stop offset="1" stop-color="#FF9E59"/>
</linearGradient>
<linearGradient id="paint4_linear_2007_1683" x1="89.5865" y1="82.8631" x2="33.1223" y2="114.104" gradientUnits="userSpaceOnUse">
<stop stop-color="#FFD459"/>
<stop offset="1" stop-color="#FF9E59"/>
</linearGradient>
<linearGradient id="paint5_linear_2007_1683" x1="57.9736" y1="67.2597" x2="64.9656" y2="91.8241" gradientUnits="userSpaceOnUse">
<stop stop-color="#FFD459"/>
<stop offset="1" stop-color="#FF9E59"/>
</linearGradient>
<linearGradient id="paint6_linear_2007_1683" x1="62.7115" y1="85.9956" x2="59.4645" y2="68.9334" gradientUnits="userSpaceOnUse">
<stop stop-color="#FAA544"/>
<stop offset="0.51" stop-color="#FA9444"/>
<stop offset="1" stop-color="#FA8A44"/>
</linearGradient>
<linearGradient id="paint7_linear_2007_1683" x1="53.2697" y1="87.3296" x2="65.4738" y2="72.7162" gradientUnits="userSpaceOnUse">
<stop stop-color="#700049"/>
<stop offset="0.13" stop-color="#7A0543"/>
<stop offset="0.36" stop-color="#961335"/>
<stop offset="0.67" stop-color="#C42B1D"/>
<stop offset="1" stop-color="#FF4900"/>
</linearGradient>
<clipPath id="clip0_2007_1683">
<rect width="122" height="110" fill="white"/>
</clipPath>
</defs>
</svg>
