<svg width="86" height="109" viewBox="0 0 86 109" fill="none" xmlns="http://www.w3.org/2000/svg">
<g clip-path="url(#clip0_2007_1547)">
<path d="M-6.89339e-05 94.2531C-0.232263 91.315 18.6075 70.6999 20.6172 68.3816C22.6269 66.0552 20.401 60.1388 23.2594 56.122C24.7567 54.021 43.9247 79.1842 45.1177 82.2511C46.3107 85.318 41.0343 84.3762 36.4785 86.4127C31.9227 88.4493 17.5666 102.359 14.1798 107.181C10.793 112.002 1.02479 106.98 -6.89339e-05 94.2531Z" fill="url(#paint0_linear_2007_1547)"/>
<path d="M23.2676 56.122C18.8479 63.0769 39.5052 86.2357 45.1739 83.5712C50.8427 80.9068 27.287 49.7869 23.2676 56.122Z" fill="url(#paint1_linear_2007_1547)"/>
<g style="mix-blend-mode:multiply" opacity="0.5">
<path d="M44.1971 78.178C44.1971 78.178 44.9817 79.9248 44.3892 80.3916C43.4524 81.1483 37.5035 78.5 32.5073 70.9011C27.5111 63.2942 27.7753 61.0645 27.8474 59.6316C27.9194 58.1988 39.2169 66.6348 44.1971 78.178Z" fill="#AB2781"/>
</g>
<path d="M85.7919 0.0965958C85.848 0.370283 85.896 1.0384 85.928 2.02046C85.928 2.02046 85.928 2.03656 85.928 2.06875C86.1282 7.42981 85.9601 21.3637 84.5269 32.11C84.4788 32.4883 84.4228 32.8747 84.3587 33.2691C83.518 39.0568 82.269 43.9107 80.4034 46.1807C70.1789 58.5932 43.5486 78.7897 42.4116 79.643C42.3876 79.6591 42.3796 79.6752 42.3796 79.6752C40.7622 78.999 39.329 78.0733 38.064 77.0188C31.9629 71.9315 29.689 63.6001 29.689 63.6001C35.7741 53.7554 72.1485 12.1469 82.9816 2.0607C84.703 0.450779 85.7199 -0.289786 85.7919 0.0965958Z" fill="url(#paint2_linear_2007_1547)"/>
<path d="M12.3785 77.703C12.3785 77.703 11.5458 77.7352 11.2015 77.9687C10.8652 78.2021 5.39664 84.513 4.7481 86.0827C4.09955 87.6524 5.38063 93.8425 10.2647 100.846C14.0839 106.328 17.2386 103.88 18.8719 102.955C20.5053 102.029 23.1555 98.5757 23.2756 98.1652C23.3877 97.7547 23.4518 97.1348 23.4437 97.1348L12.3785 77.695V77.703Z" fill="url(#paint3_linear_2007_1547)"/>
<path d="M85.7919 0.0965958C86.3363 2.88982 86.2483 39.0809 80.4034 46.1807C69.9546 58.8589 42.3715 79.6752 42.3715 79.6752C40.7542 78.999 39.321 78.0733 38.0559 77.0188C40.7141 74.6683 63.6053 54.2867 69.0659 44.4178C74.6065 34.4122 81.6684 7.22052 82.9735 2.0607C84.695 0.450779 85.7118 -0.289786 85.7839 0.0965958H85.7919Z" fill="url(#paint4_linear_2007_1547)"/>
<path d="M21.2418 67.2063C21.2418 67.2063 20.5932 67.0614 19.8806 67.3754C19.168 67.6893 12.8027 75.7309 12.3703 76.391C11.938 77.051 13.8676 87.4109 17.2945 93.2549C20.7213 99.0989 24.6446 96.9014 26.0458 96.2413C27.447 95.5813 31.7466 91.2506 31.7946 90.9688C31.8426 90.6871 32.299 89.2382 32.299 89.2382C32.299 89.2382 30.8498 90.3088 30.3534 90.6468C29.857 90.9849 19.8086 82.4845 20.337 68.9772L21.2418 67.2144V67.2063Z" fill="url(#paint5_linear_2007_1547)"/>
<g style="mix-blend-mode:multiply" opacity="0.8">
<path d="M12.3785 77.703C12.3785 77.703 12.4105 81.0678 15.7733 88.3527C19.1361 95.6376 23.4437 97.1429 23.4437 97.1429C23.4437 97.1429 21.0417 97.9559 17.759 94.0438C14.14 89.7211 11.8661 81.3173 12.3785 77.703Z" fill="#AB2781"/>
</g>
<g style="mix-blend-mode:multiply" opacity="0.5">
<path d="M39.4091 85.4548C39.4091 85.4548 35.2536 85.6319 31.2663 82.6214C27.279 79.6108 23.724 72.3098 24.8129 67.9791C25.3013 66.0311 28.2158 71.851 33.9486 77.6547C39.6814 83.4585 44.5174 84.191 44.5174 84.191C44.5174 84.191 40.7783 85.5434 39.4011 85.4548H39.4091Z" fill="#AB2781"/>
</g>
<g style="mix-blend-mode:multiply" opacity="0.5">
<path d="M7.09385 107.897C4.14739 103.752 12.8827 104.058 14.1558 104.339C15.4288 104.621 16.7579 104.041 16.7579 104.041C16.7579 104.041 15.677 105.144 14.492 106.762C13.3071 108.38 11.2573 110.224 7.09385 107.889V107.897Z" fill="#AB2781"/>
</g>
<g style="mix-blend-mode:multiply" opacity="0.3">
<path d="M20.9936 67.8262C20.3211 70.0881 22.699 71.8027 23.9001 68.8243C25.1011 65.8459 22.9633 62.1834 22.635 61.3301C22.3067 60.4769 21.458 62.28 21.5861 64.5017C21.7222 66.7234 20.9856 67.8342 20.9856 67.8342L20.9936 67.8262Z" fill="#CB7AB1"/>
</g>
<g style="mix-blend-mode:soft-light" opacity="0.5">
<path d="M11.2014 77.9767C11.2014 77.9767 11.7699 81.4783 13.4993 86.9762C15.2368 92.4741 19.2081 95.9274 19.5604 96.024C19.9047 96.1286 16.5739 93.7862 13.9637 86.9521C11.5137 80.5446 12.2023 77.8479 12.2263 77.8801C12.2423 77.9123 11.2094 77.6306 11.2014 77.9767Z" fill="#FFFF34"/>
</g>
<g style="mix-blend-mode:soft-light" opacity="0.5">
<path d="M19.4564 67.7215C19.4564 67.7215 18.0792 71.8751 19.7766 78.5885C21.4821 85.3019 28.3838 91.2747 28.3838 91.2747C28.3838 91.2747 21.402 85.0604 20.169 78.3551C18.9359 71.6497 19.4564 67.7296 19.4564 67.7296V67.7215Z" fill="#FFFF34"/>
</g>
<g style="mix-blend-mode:multiply" opacity="0.8">
<path d="M21.2419 67.2063C21.2419 67.2063 20.0809 66.9085 19.5845 68.2447C19.0881 69.581 19.1601 75.2801 20.7855 80.5768C22.4188 85.8734 30.1613 92.2648 30.6337 92.0233C31.1061 91.7818 31.6586 91.476 31.7947 90.9608C31.9308 90.4456 32.2991 89.2301 32.2991 89.2301L31.3223 89.9868C31.3223 89.9868 27.1428 88.1595 23.3236 80.2548C19.5124 72.35 20.8735 68.446 21.1218 67.971C21.378 67.4961 21.2338 67.2063 21.2338 67.2063H21.2419Z" fill="#AB2781"/>
</g>
<g style="mix-blend-mode:soft-light" opacity="0.3">
<path d="M15.0928 86.2437C16.9423 89.1657 18.912 81.9372 19.1442 77.4374C19.3764 72.9377 18.7038 68.6553 18.7038 68.6553C18.7038 68.6553 13.4754 74.9581 12.955 77.8238C12.4346 80.6895 14.3401 85.0524 15.0928 86.2437Z" fill="#FFBA81"/>
</g>
<g style="mix-blend-mode:soft-light" opacity="0.3">
<path d="M7.72651 96.185C8.91951 98.0525 12.0181 93.8104 12.6346 89.9868C13.2511 86.1632 10.8171 79.2486 10.8171 79.2486C10.8171 79.2486 0.960849 85.6078 7.72651 96.185Z" fill="#FFBA81"/>
</g>
<g style="mix-blend-mode:soft-light" opacity="0.5">
<path d="M26.4942 68.1562C29.8571 72.4305 28.4479 64.3085 27.8314 60.6459C27.2148 56.9833 23.7239 55.7356 23.7239 55.7356C23.7239 55.7356 20.5853 60.6298 26.4942 68.1562Z" fill="#FFBA81"/>
</g>
<g style="mix-blend-mode:soft-light" opacity="0.5">
<path d="M2.56225 102.48C4.21964 105.474 5.46068 104.339 7.35026 102.745C9.23984 101.152 4.91622 92.3614 4.78011 90.2122C4.64399 88.0629 -3.44278 91.6531 2.56225 102.48Z" fill="#FFBA81"/>
</g>
<path d="M23.3555 61.5957C22.3146 61.2255 22.1064 66.3531 24.8847 67.641C27.6631 68.929 25.6214 62.4088 23.3555 61.5957Z" fill="#730011"/>
<g style="mix-blend-mode:multiply" opacity="0.5">
<path d="M22.7629 64.5097C23.4996 67.2868 25.7574 66.2243 25.229 63.8979C24.7006 61.5716 22.9391 61.6843 22.843 61.966C22.7469 62.2478 22.5628 63.7691 22.7629 64.5097Z" fill="#967566"/>
</g>
<path d="M25.2451 67.7698C23.94 66.9649 25.7976 65.2986 25.7816 64.7432C25.7736 64.1877 26.8945 68.4057 25.2451 67.7698Z" fill="#B13125"/>
<path d="M0.328362 96.7646C0.200255 96.1045 1.55339 96.4023 1.72954 97.1187C1.8016 97.4246 1.16907 99.9603 1.16907 99.9603C1.16907 99.9603 0.592584 98.0766 0.328362 96.7646Z" fill="#730011"/>
<path d="M1.15304 99.7832C1.15304 99.7832 0.80074 99.3082 0.992901 98.5757C1.18506 97.8432 1.73752 97.3119 1.73752 97.3119C1.73752 97.3119 1.60942 98.9299 1.15304 99.7832Z" fill="#BE4325"/>
<g style="mix-blend-mode:multiply" opacity="0.5">
<path d="M38.0078 76.8256C38.0078 76.8256 41.875 82.5328 43.6766 83.4988C45.4781 84.4647 46.2467 82.7502 46.0385 81.5025C45.8224 80.2548 44.8856 77.6547 44.8856 77.6547L42.6197 79.4096C42.6197 79.4096 40.2497 78.9185 38.0158 76.8256H38.0078Z" fill="#AB2781"/>
</g>
<g style="mix-blend-mode:soft-light" opacity="0.5">
<path d="M81.132 45.1021C78.6419 48.2092 71.58 45.577 70.9154 43.8383C70.2429 42.0754 77.3288 22.7965 79.3785 15.3667C81.5163 7.623 83.6221 2.90591 84.703 1.50528C85.7839 0.0965948 87.5854 30.5644 81.132 45.1021Z" fill="#C7A1AB"/>
</g>
<g style="mix-blend-mode:multiply" opacity="0.3">
<path d="M44.7095 70.9816C39.1609 76.0448 38.9527 61.9338 49.6817 44.3051C61.2033 25.3563 82.7093 3.09106 82.7093 3.09106C82.7093 3.09106 73.7338 37.9057 69.0659 44.4178C64.4941 50.777 44.7095 70.9736 44.7095 70.9736V70.9816Z" fill="#CBAAB1"/>
</g>
<g style="mix-blend-mode:multiply" opacity="0.5">
<path d="M84.3586 33.2691C83.5179 39.0568 82.2688 43.9107 80.4032 46.1807C70.1787 58.5932 43.5484 78.7898 42.4114 79.643L41.4426 79.16C41.4426 79.16 59.786 65.5964 64.9903 61.1128C70.2267 56.613 70.1867 56.4842 70.2748 56.122C70.3628 55.7517 70.8432 53.8923 72.8689 53.0148C74.8946 52.1374 78.0493 48.3622 79.5866 46.8649C81.0198 45.4643 83.4458 38.8717 84.3586 33.2611V33.2691Z" fill="#4D2757"/>
</g>
<g style="mix-blend-mode:multiply" opacity="0.5">
<path d="M85.928 2.07681C86.1282 7.43786 85.9601 21.3718 84.5269 32.118C85.3035 26.0405 84.2546 23.0541 84.5109 20.768C84.7671 18.5383 85.856 3.09106 85.928 2.07681Z" fill="#4D2757"/>
</g>
<path d="M66.7358 47.9194C66.7358 47.9194 70.6831 47.5652 72.3726 45.1665C74.062 42.7677 72.5327 36.8995 72.5327 36.8995C72.5327 36.8995 68.5213 42.2605 66.7358 47.9194Z" fill="#B8A9BB"/>
<g style="mix-blend-mode:multiply" opacity="0.3">
<path d="M42.4035 79.643L38.0078 76.8176C38.0078 76.8176 50.7625 65.2986 55.4224 61.9177C60.0823 58.5369 69.1939 57.5146 69.1939 57.5146C69.1939 57.5146 55.8548 69.4924 42.4035 79.635V79.643Z" fill="#975A9F"/>
</g>
<g style="mix-blend-mode:soft-light" opacity="0.5">
<path d="M77.0565 21.734C76.2879 24.1247 84.2785 25.5576 84.2785 25.5576C84.2785 25.5576 85.4635 8.52456 85.5756 6.91463C85.6877 5.30471 82.0046 5.79573 81.8205 6.488C81.6363 7.18027 77.0565 21.734 77.0565 21.734Z" fill="#F6F4EA"/>
</g>
<g style="mix-blend-mode:multiply" opacity="0.3">
<path d="M68.6095 26.4511C68.7296 26.7409 68.8337 27.0306 68.9138 27.2963C68.9218 27.3204 68.9298 27.3285 68.9378 27.3526C69.7625 29.848 69.3301 31.6914 67.2164 37.3986C64.8624 43.7658 60.779 45.4321 60.779 45.4321C60.0664 46.0117 59.5059 45.5609 59.0815 44.6674C58.5371 43.5404 58.2408 41.6971 58.1608 40.4172C58.0086 37.9057 59.9543 36.7948 60.843 35.0561C61.7318 33.3174 67.4005 23.4244 68.6175 26.4511H68.6095Z" fill="#C296B5"/>
</g>
<g style="mix-blend-mode:multiply" opacity="0.71">
<path d="M68.6094 26.4511C68.7295 26.7409 68.8336 27.0306 68.9137 27.2963C68.7135 26.8697 67.7367 25.3644 65.2146 28.6245C62.2761 32.4158 61.7157 36.5936 61.0271 37.1651C60.3305 37.7447 59.73 37.0283 58.8172 39.0326C58.0406 40.7311 58.8172 43.7578 59.0654 44.6593C58.521 43.5324 58.2247 41.689 58.1447 40.4091C57.9925 37.8976 59.9382 36.7868 60.8269 35.0481C61.7157 33.3094 67.3844 23.4164 68.6014 26.443L68.6094 26.4511Z" fill="#B37CA3"/>
</g>
<g style="mix-blend-mode:multiply" opacity="0.3">
<path d="M56.4074 42.2042C55.3985 41.9708 55.0382 45.7058 55.1823 48.8451C55.3345 51.9845 57.3121 51.0749 58.409 48.6519C59.5059 46.229 58.0247 42.5825 56.4074 42.2122V42.2042Z" fill="#C296B5"/>
</g>
<g style="mix-blend-mode:multiply" opacity="0.71">
<path d="M55.7027 50.608C55.3424 49.8916 54.798 44.6593 56.3593 43.3311C57.4882 42.3732 58.3449 44.4339 58.3449 44.4339C58.3449 44.4339 57.1359 41.6407 55.9429 42.4215C54.7419 43.2104 54.822 49.7789 55.7027 50.6V50.608Z" fill="#B37CA3"/>
</g>
<g style="mix-blend-mode:soft-light" opacity="0.5">
<path d="M33.1717 58.6818C31.9067 60.4125 38.256 59.3258 41.819 56.5728C45.382 53.8198 54.5336 35.6357 54.8459 34.7663C55.1581 33.897 45.3179 42.0432 33.1717 58.6818Z" fill="#C7A1AB"/>
</g>
<g style="mix-blend-mode:multiply" opacity="0.3">
<path d="M49.057 53.0792C47.2956 54.5523 47.6078 64.2682 48.2163 65.7816C48.8248 67.2949 57.9685 56.291 59.4497 55.0997C60.931 53.9003 54.0452 49.8513 52.1076 49.0947C50.17 48.338 49.057 53.0873 49.057 53.0873V53.0792Z" fill="#DCC6CB"/>
</g>
<g style="mix-blend-mode:multiply" opacity="0.3">
<path d="M31.5224 68.6553C30.3374 65.5159 34.2367 63.914 36.3985 61.153C38.5683 58.4 38.4803 68.2206 38.2801 71.8349C38.0719 75.4572 37.015 76.0851 37.015 76.0851C37.015 76.0851 32.9636 72.4708 31.5224 68.6472V68.6553Z" fill="#DCC6CB"/>
</g>
<g style="mix-blend-mode:multiply" opacity="0.5">
<path d="M53.709 33.897C53.709 33.897 66.6078 21.4764 70.9714 16.8318C75.3351 12.1871 82.9815 2.06071 82.9815 2.06071C82.9815 2.06071 67.0642 18.1117 53.709 33.897Z" fill="#4D2757"/>
</g>
<path d="M59.8743 45.6253C60.779 45.4401 64.7584 42.6791 66.76 37.7849C68.7617 32.8908 69.3222 30.0171 69.3222 30.0171C69.3222 30.0171 69.106 33.1886 66.9682 38.0425C64.8304 42.8965 63.9096 43.3633 62.4284 44.925C60.9472 46.4785 59.8823 45.6253 59.8823 45.6253H59.8743Z" fill="#947E99"/>
<path d="M56.0629 50.8253C56.0629 50.8253 56.7115 50.9219 57.6643 49.6903C58.6171 48.4668 58.7852 46.9696 58.7852 46.9696C58.7852 46.9696 58.9213 48.1851 57.9445 49.9157C56.9757 51.6464 56.0549 50.8253 56.0549 50.8253H56.0629Z" fill="#947E99"/>
<path d="M70.403 54.7938C70.0668 54.8582 68.5695 57.8366 68.3613 58.1425C68.1532 58.4483 69.9947 56.9994 70.339 56.3474C70.6833 55.6954 70.403 54.7938 70.403 54.7938Z" fill="#B8A9BB"/>
<path d="M74.0781 32.609C74.0781 32.609 74.4144 28.6486 74.9028 27.4975C75.3992 26.3464 76.8004 23.9637 76.8004 23.9637C76.8004 23.9637 75.7035 29.9527 74.0781 32.601V32.609Z" fill="#C3B6C5"/>
</g>
<defs>
<linearGradient id="paint0_linear_2007_1547" x1="28.7362" y1="97.596" x2="6.00414" y2="70.7163" gradientUnits="userSpaceOnUse">
<stop stop-color="#72001B"/>
<stop offset="1" stop-color="#8B1F11"/>
</linearGradient>
<linearGradient id="paint1_linear_2007_1547" x1="45.444" y1="83.4139" x2="22.6808" y2="56.4974" gradientUnits="userSpaceOnUse">
<stop stop-color="#C3461D"/>
<stop offset="1" stop-color="#D45A0E"/>
</linearGradient>
<linearGradient id="paint2_linear_2007_1547" x1="30.4797" y1="68.4677" x2="96.6817" y2="13.0765" gradientUnits="userSpaceOnUse">
<stop stop-color="#665267"/>
<stop offset="0.19" stop-color="#69566A"/>
<stop offset="0.41" stop-color="#736375"/>
<stop offset="0.64" stop-color="#847A88"/>
<stop offset="0.87" stop-color="#9C98A1"/>
<stop offset="1" stop-color="#ADAEB3"/>
</linearGradient>
<linearGradient id="paint3_linear_2007_1547" x1="21.1898" y1="101.106" x2="5.62023" y2="82.696" gradientUnits="userSpaceOnUse">
<stop stop-color="#48001B"/>
<stop offset="1" stop-color="#5E1F11"/>
</linearGradient>
<linearGradient id="paint4_linear_2007_1547" x1="30.7308" y1="68.2552" x2="96.6806" y2="13.0752" gradientUnits="userSpaceOnUse">
<stop stop-color="#837384"/>
<stop offset="0.21" stop-color="#867787"/>
<stop offset="0.45" stop-color="#908492"/>
<stop offset="0.7" stop-color="#A29BA5"/>
<stop offset="0.95" stop-color="#BAB9BF"/>
<stop offset="1" stop-color="#C0C1C5"/>
</linearGradient>
<linearGradient id="paint5_linear_2007_1547" x1="29.949" y1="93.1307" x2="13.0465" y2="73.1442" gradientUnits="userSpaceOnUse">
<stop stop-color="#48001B"/>
<stop offset="1" stop-color="#5E1F11"/>
</linearGradient>
<clipPath id="clip0_2007_1547">
<rect width="86" height="109" fill="white"/>
</clipPath>
</defs>
</svg>
